<svg width="36" height="36" viewBox="0 0 36 36" fill="none" xmlns="http://www.w3.org/2000/svg">
<path d="M22.5 34.125H13.5C5.355 34.125 1.875 30.645 1.875 22.5V13.5C1.875 5.355 5.355 1.875 13.5 1.875H22.5C30.645 1.875 34.125 5.355 34.125 13.5V22.5C34.125 30.645 30.645 34.125 22.5 34.125ZM13.5 4.125C6.585 4.125 4.125 6.585 4.125 13.5V22.5C4.125 29.415 6.585 31.875 13.5 31.875H22.5C29.415 31.875 31.875 29.415 31.875 22.5V13.5C31.875 6.585 29.415 4.125 22.5 4.125H13.5Z" fill="#171717"/>
<path d="M13.5 16.125C11.22 16.125 9.375 14.28 9.375 12C9.375 9.72 11.22 7.875 13.5 7.875C15.78 7.875 17.625 9.72 17.625 12C17.625 14.28 15.78 16.125 13.5 16.125ZM13.5 10.125C12.465 10.125 11.625 10.965 11.625 12C11.625 13.035 12.465 13.875 13.5 13.875C14.535 13.875 15.375 13.035 15.375 12C15.375 10.965 14.535 10.125 13.5 10.125Z" fill="#171717"/>
<path d="M4.00499 29.5501C3.64499 29.5501 3.28499 29.3701 3.07499 29.0551C2.72999 28.5451 2.86499 27.8401 3.38999 27.4951L10.785 22.5301C12.405 21.4351 14.64 21.5701 16.11 22.8151L16.605 23.2501C17.355 23.8951 18.63 23.8951 19.365 23.2501L25.605 17.8951C27.195 16.5301 29.7 16.5301 31.305 17.8951L33.75 19.9951C34.215 20.4001 34.275 21.1051 33.87 21.5851C33.465 22.0501 32.76 22.1101 32.28 21.7051L29.835 19.6051C29.085 18.9601 27.81 18.9601 27.06 19.6051L20.82 24.9601C19.23 26.3251 16.725 26.3251 15.12 24.9601L14.625 24.5251C13.935 23.9401 12.795 23.8801 12.03 24.4051L4.63499 29.3701C4.43999 29.4901 4.21499 29.5501 4.00499 29.5501Z" fill="#171717"/>
</svg>
