<svg width="28" height="28" viewBox="0 0 28 28" fill="none" xmlns="http://www.w3.org/2000/svg">
<path d="M16.1625 3.38755L18.3625 7.78755C18.6625 8.40005 19.4625 8.98755 20.1375 9.10005L24.125 9.76255C26.675 10.1875 27.275 12.0375 25.4375 13.8625L22.3375 16.9625C21.8125 17.4875 21.525 18.5 21.6875 19.225L22.575 23.0625C23.275 26.1 21.6625 27.275 18.975 25.6875L15.2375 23.475C14.5625 23.075 13.45 23.075 12.7625 23.475L9.02498 25.6875C6.34998 27.275 4.72498 26.0875 5.42498 23.0625L6.31248 19.225C6.47498 18.5 6.18748 17.4875 5.66248 16.9625L2.56248 13.8625C0.737478 12.0375 1.32498 10.1875 3.87498 9.76255L7.86248 9.10005C8.52498 8.98755 9.32498 8.40005 9.62498 7.78755L11.825 3.38755C13.025 1.00005 14.975 1.00005 16.1625 3.38755Z" stroke="#171717" stroke-width="1.5" stroke-linecap="round" stroke-linejoin="round"/>
</svg>
