<svg width="36" height="36" viewBox="0 0 36 36" fill="none" xmlns="http://www.w3.org/2000/svg">
<path d="M13.5 33H22.5C30 33 33 30 33 22.5V13.5C33 6 30 3 22.5 3H13.5C6 3 3 6 3 13.5V22.5C3 30 6 33 13.5 33Z" stroke="#171717" stroke-width="1.5" stroke-linecap="round" stroke-linejoin="round"/>
<path d="M26.25 18C26.25 22.56 22.56 26.25 18 26.25C13.44 26.25 10.665 21.66 10.665 21.66M10.665 21.66H14.385M10.665 21.66V25.785M9.75 18C9.75 13.44 13.41 9.75 18 9.75C23.505 9.75 26.25 14.34 26.25 14.34M26.25 14.34V10.215M26.25 14.34H22.59" stroke="#171717" stroke-width="1.5" stroke-linecap="round" stroke-linejoin="round"/>
</svg>
