<svg width="28" height="28" viewBox="0 0 28 28" fill="none" xmlns="http://www.w3.org/2000/svg">
<path d="M17.5 26.5416H10.5C4.165 26.5416 1.45833 23.835 1.45833 17.5V10.5C1.45833 4.16498 4.165 1.45831 10.5 1.45831H17.5C23.835 1.45831 26.5417 4.16498 26.5417 10.5V17.5C26.5417 23.835 23.835 26.5416 17.5 26.5416ZM10.5 3.20831C5.12167 3.20831 3.20833 5.12165 3.20833 10.5V17.5C3.20833 22.8783 5.12167 24.7916 10.5 24.7916H17.5C22.8783 24.7916 24.7917 22.8783 24.7917 17.5V10.5C24.7917 5.12165 22.8783 3.20831 17.5 3.20831H10.5Z" fill="#171717"/>
<path d="M14.0001 22.1083C13.7201 22.1083 13.4402 22.0383 13.2068 21.9099C11.8535 21.1749 9.46182 20.3816 7.95682 20.1833L7.73515 20.1483C6.59181 20.0083 5.6818 18.9816 5.6818 17.8033V8.81994C5.6818 8.15494 5.96183 7.51327 6.44016 7.06994C6.93016 6.6266 7.56014 6.40495 8.23681 6.46328C9.94014 6.60328 12.4135 7.41996 13.8718 8.32996L13.9885 8.39995L14.0352 8.36496C15.5052 7.44329 17.9785 6.61495 19.6935 6.46328C19.7168 6.46328 19.7868 6.46328 19.8101 6.46328C20.4168 6.40495 21.0701 6.63827 21.5484 7.06994C22.0384 7.51327 22.3068 8.13159 22.3068 8.80826V17.7799C22.3068 18.9466 21.3968 19.9733 20.2418 20.1249L19.9968 20.1599C18.5035 20.3583 16.1001 21.1516 14.7701 21.8866C14.5484 22.05 14.2801 22.1083 14.0001 22.1083ZM8.03849 8.22493C7.87516 8.22493 7.73512 8.28327 7.63012 8.3766C7.50178 8.49327 7.44348 8.65662 7.44348 8.83162V17.8149C7.44348 18.0949 7.70016 18.3866 7.96849 18.4216L8.19016 18.4566C9.8935 18.6899 12.5068 19.5416 14.0235 20.3699C15.4352 19.5533 18.0602 18.6783 19.7752 18.4566L20.0318 18.4216C20.3001 18.3866 20.5568 18.0949 20.5568 17.8149V8.84326C20.5568 8.65659 20.4868 8.50494 20.3702 8.38828C20.2418 8.27161 20.0785 8.22494 19.8918 8.2366C19.8685 8.2366 19.7985 8.2366 19.7752 8.2366C18.4218 8.35327 16.1935 9.09993 14.9802 9.86993L14.8635 9.93993C14.3501 10.2549 13.6268 10.2549 13.1368 9.95161L12.9618 9.84661C11.7368 9.07661 9.50848 8.34159 8.09681 8.22493C8.07348 8.22493 8.06183 8.22493 8.03849 8.22493Z" fill="#171717"/>
<path d="M14 21.4783C13.5217 21.4783 13.125 21.0816 13.125 20.6033V9.44995C13.125 8.97162 13.5217 8.57495 14 8.57495C14.4783 8.57495 14.875 8.97162 14.875 9.44995V20.6033C14.875 21.0933 14.4783 21.4783 14 21.4783Z" fill="#171717"/>
</svg>
