<svg width="28" height="28" viewBox="0 0 28 28" fill="none" xmlns="http://www.w3.org/2000/svg">
<path d="M17.5 26.5416H10.5C4.16499 26.5416 1.45833 23.835 1.45833 17.5V10.5C1.45833 4.16498 4.16499 1.45831 10.5 1.45831H17.5C23.835 1.45831 26.5417 4.16498 26.5417 10.5V17.5C26.5417 23.835 23.835 26.5416 17.5 26.5416ZM10.5 3.20831C5.12166 3.20831 3.20833 5.12165 3.20833 10.5V17.5C3.20833 22.8783 5.12166 24.7916 10.5 24.7916H17.5C22.8783 24.7916 24.7917 22.8783 24.7917 17.5V10.5C24.7917 5.12165 22.8783 3.20831 17.5 3.20831H10.5Z" fill="#171717"/>
<path d="M10.5 12.5417C8.72666 12.5417 7.29166 11.1067 7.29166 9.33333C7.29166 7.56 8.72666 6.125 10.5 6.125C12.2733 6.125 13.7083 7.56 13.7083 9.33333C13.7083 11.1067 12.2733 12.5417 10.5 12.5417ZM10.5 7.875C9.69499 7.875 9.04166 8.52833 9.04166 9.33333C9.04166 10.1383 9.69499 10.7917 10.5 10.7917C11.305 10.7917 11.9583 10.1383 11.9583 9.33333C11.9583 8.52833 11.305 7.875 10.5 7.875Z" fill="#171717"/>
<path d="M3.115 22.9833C2.835 22.9833 2.555 22.8433 2.39166 22.5983C2.12333 22.2017 2.22833 21.6533 2.63666 21.385L8.38833 17.5233C9.64833 16.6717 11.3867 16.7767 12.53 17.745L12.915 18.0833C13.4983 18.585 14.49 18.585 15.0617 18.0833L19.915 13.9183C21.1517 12.8567 23.1 12.8567 24.3483 13.9183L26.25 15.5517C26.6117 15.8667 26.6583 16.415 26.3433 16.7883C26.0283 17.15 25.48 17.1967 25.1067 16.8817L23.205 15.2483C22.6217 14.7467 21.63 14.7467 21.0467 15.2483L16.1933 19.4133C14.9567 20.475 13.0083 20.475 11.76 19.4133L11.375 19.075C10.8383 18.62 9.95166 18.5733 9.35667 18.9817L3.605 22.8433C3.45333 22.9367 3.27833 22.9833 3.115 22.9833Z" fill="#171717"/>
</svg>
